<?xml version="1.0" standalone="no"?>
<!DOCTYPE svg PUBLIC "-//W3C//DTD SVG 20010904//EN"
 "http://www.w3.org/TR/2001/REC-SVG-20010904/DTD/svg10.dtd">
<svg version="1.0" xmlns="http://www.w3.org/2000/svg"
 width="260.000000pt" height="260.000000pt" viewBox="0 0 260.000000 260.000000"
 preserveAspectRatio="xMidYMid meet">
<metadata>
Created by potrace 1.11, written by Peter Selinger 2001-2013
</metadata>
<g transform="translate(0.000000,260.000000) scale(0.100000,-0.100000)"
fill="#000000" stroke="none">
<path d="M1120 2588 c-294 -46 -527 -164 -735 -373 -264 -263 -389 -576 -380
-945 2 -80 6 -158 10 -175 21 -99 28 -128 51 -200 61 -193 162 -355 318 -510
195 -194 397 -303 667 -361 117 -25 381 -25 499 0 351 75 641 269 832 558 92
139 173 335 194 473 3 22 10 60 14 85 9 48 6 303 -5 360 -52 292 -165 511
-370 715 -205 205 -419 316 -715 370 -57 11 -320 13 -380 3z m355 -424 c172
-34 308 -108 441 -239 98 -97 146 -169 199 -300 41 -103 55 -163 58 -250 l2
-70 -195 0 -195 0 0 38 c-1 34 1 37 29 37 25 0 4 18 -132 110 l-161 111 -42
-27 c-28 -17 -45 -22 -51 -16 -16 16 -38 3 -38 -22 0 -14 -18 -33 -54 -58 -51
-36 -59 -38 -128 -38 -71 0 -77 2 -129 41 -90 67 -101 72 -130 46 -13 -12 -60
-49 -103 -82 -73 -55 -77 -60 -53 -63 24 -3 27 -8 27 -43 l0 -39 -204 0 -204
0 4 57 c14 218 101 407 260 567 215 214 499 300 799 240z m-106 -912 c21 -42
31 -46 121 -57 39 -4 68 -2 99 9 23 9 89 18 145 22 55 3 107 7 114 10 7 2 11
0 7 -5 -6 -10 -55 -20 -129 -26 -25 -2 -54 -8 -63 -13 -15 -9 -14 -10 3 -15
10 -3 44 -9 74 -12 30 -3 75 -8 100 -11 25 -2 93 -6 151 -8 74 -3 117 -9 143
-21 48 -23 41 -28 -13 -9 -23 8 -47 12 -52 8 -13 -8 -2 -42 25 -79 36 -48 41
-62 17 -40 -13 11 -34 39 -47 62 -27 44 -43 56 -64 43 -18 -11 39 -131 82
-171 l33 -31 -34 19 c-23 12 -49 43 -75 86 -35 59 -46 69 -91 86 -70 26 -78
14 -14 -21 59 -31 76 -50 111 -117 12 -24 30 -49 40 -55 24 -15 23 -24 -4 -28
-20 -3 -22 -8 -21 -58 l2 -55 -14 55 c-8 30 -17 70 -20 89 -10 61 -34 99 -78
120 -36 18 -42 19 -45 6 -2 -9 9 -39 23 -68 24 -45 25 -49 7 -34 -11 10 -36
49 -56 87 -20 37 -44 71 -53 75 -10 4 -56 9 -103 11 l-85 4 46 -23 c131 -65
166 -96 253 -227 46 -69 87 -136 91 -150 5 -20 2 -18 -15 10 -21 32 -23 33
-36 15 -8 -10 -14 -28 -14 -39 0 -10 -3 -16 -7 -13 -3 4 -5 31 -4 60 1 42 -3
57 -19 72 -11 10 -23 15 -26 12 -4 -4 -12 -35 -19 -69 l-13 -63 -2 80 c-1 44
-3 88 -5 99 -7 37 -28 77 -39 73 -13 -4 -14 -79 -3 -117 l8 -25 -15 25 c-8 14
-18 46 -22 72 -7 48 -27 88 -39 77 -17 -18 -10 -88 14 -140 30 -60 66 -168 59
-174 -3 -3 -15 19 -27 48 -47 110 -45 107 -49 59 -2 -31 3 -53 19 -78 20 -33
42 -104 33 -104 -3 0 -14 21 -25 48 -18 41 -22 44 -30 27 -4 -11 -11 -51 -14
-88 -4 -38 -9 -66 -12 -64 -3 3 -6 72 -7 154 -2 149 -12 200 -43 211 -10 3
-13 -18 -14 -80 -1 -45 -1 -87 1 -93 1 -7 -2 -7 -9 0 -5 6 -13 37 -16 69 -4
33 -9 67 -10 75 -2 9 -4 22 -4 29 -2 27 -21 0 -21 -29 0 -18 -4 -28 -10 -24
-12 7 -7 32 17 83 8 19 12 44 9 58 -8 30 -55 84 -95 107 -39 23 -39 22 -5
-122 20 -89 34 -123 75 -187 27 -43 49 -83 49 -89 -1 -5 -8 3 -16 18 -21 39
-26 29 -14 -29 15 -70 19 -153 9 -160 -5 -3 -9 7 -10 23 -1 54 -30 156 -66
232 -30 63 -42 54 -39 -29 3 -46 10 -66 40 -109 32 -47 39 -69 39 -126 0 -47
-6 -43 -18 11 -14 66 -33 104 -51 104 -16 0 -23 -41 -12 -69 13 -36 17 -91 7
-91 -5 0 -9 10 -9 23 0 27 -24 65 -32 51 -3 -5 -9 -31 -13 -59 -3 -27 -8 -51
-11 -54 -11 -11 -2 121 10 158 14 39 14 69 1 91 -21 34 -48 -31 -48 -113 l1
-62 -13 40 c-13 45 -14 44 -33 -60 l-10 -50 -1 55 c0 30 6 77 14 104 20 67 19
138 -5 231 -18 72 -49 125 -72 125 -16 0 -68 -64 -68 -83 0 -11 23 -42 50 -70
48 -49 69 -77 32 -44 -23 21 -35 11 -21 -16 21 -38 30 -82 35 -172 6 -94 0
-113 -10 -35 -4 25 -9 63 -12 85 -4 22 -25 76 -47 119 -35 69 -41 76 -49 57
-7 -21 -3 -80 9 -111 9 -26 12 -206 2 -221 -6 -10 -9 -2 -10 26 -2 57 -5 81
-13 101 -6 16 -8 16 -16 4 -6 -8 -10 -27 -10 -42 0 -16 -5 -28 -11 -28 -11 0
-9 15 12 111 12 56 9 89 -10 89 -12 0 -27 -53 -36 -130 -12 -93 -25 -91 -18 3
6 90 -5 115 -26 57 -5 -17 -12 -30 -15 -30 -11 0 15 51 58 115 25 36 46 76 46
87 0 12 -11 35 -24 53 -14 17 -26 47 -28 66 -3 26 -9 35 -26 37 -29 4 -36 -16
-25 -80 6 -38 5 -66 -4 -98 -17 -54 -18 -104 -8 -232 5 -71 4 -98 -4 -98 -6 0
-12 14 -12 30 -1 17 -3 35 -4 40 -1 6 -3 21 -4 35 -1 30 -27 33 -36 4 -4 -11
-8 -19 -10 -17 -2 2 2 22 10 44 28 82 36 264 14 306 l-12 22 -23 -28 c-13 -15
-25 -38 -25 -52 -1 -13 -2 -30 -3 -36 -1 -7 4 -33 11 -58 12 -43 18 -118 8
-109 -2 3 -7 23 -11 45 -12 79 -31 57 -36 -44 -1 -24 -5 -45 -9 -48 -8 -5 -4
196 5 236 3 14 9 38 12 55 4 16 13 39 21 51 17 27 4 39 -32 30 -31 -8 -41 -40
-44 -135 -1 -48 -7 -36 -15 28 -4 30 -8 56 -10 58 -1 2 -13 -6 -26 -17 -33
-28 -30 -96 5 -180 36 -84 57 -152 45 -145 -6 4 -10 12 -10 18 0 7 -10 32 -22
57 l-21 45 -7 -58 c-4 -32 -12 -63 -18 -69 -7 -7 -8 1 -2 26 10 44 5 77 -19
148 l-19 53 -21 -45 c-11 -25 -21 -53 -21 -62 0 -9 -4 -19 -8 -22 -28 -17 39
189 79 245 11 16 54 52 94 79 40 27 79 55 86 62 8 7 30 26 49 42 l35 29 -35
-8 c-60 -13 -80 -24 -133 -73 -81 -75 -95 -82 -47 -23 25 30 55 65 67 78 12
12 20 24 18 24 -32 9 -88 -11 -123 -44 -23 -21 -57 -77 -48 -77 3 0 -2 -21
-10 -47 -8 -27 -17 -70 -21 -98 -10 -86 -16 -64 -9 33 4 50 4 92 1 92 -12 0
-34 -67 -39 -116 -2 -27 -9 -60 -15 -74 -8 -19 -10 -4 -6 65 5 86 4 89 -12 67
-38 -54 -73 -94 -73 -85 0 16 47 81 109 153 32 36 72 84 90 108 32 42 32 42 9
43 -73 4 -106 -18 -169 -112 -27 -41 -49 -71 -49 -67 0 11 81 158 91 164 5 3
9 12 9 21 0 12 -7 14 -32 9 -45 -9 -66 -32 -83 -90 -9 -28 -20 -58 -26 -66 -9
-12 -10 -11 -4 5 13 41 18 115 7 115 -6 0 -14 -4 -17 -10 -3 -5 -12 -10 -18
-10 -18 1 22 29 76 55 43 21 65 23 195 24 80 1 149 4 152 7 10 11 -34 33 -89
45 -84 18 -83 28 1 14 40 -8 101 -27 135 -43 68 -32 87 -33 217 -6 75 15 96
27 96 55 0 30 25 45 78 48 50 2 51 1 71 -37z m-245 -778 c3 -8 2 -12 -4 -9 -6
3 -10 10 -10 16 0 14 7 11 14 -7z"/>
<path d="M1052 1065 c-60 -41 -70 -65 -14 -36 38 19 93 71 76 71 -5 0 -33 -16
-62 -35z"/>
<path d="M1306 1085 c-10 -27 -6 -77 9 -115 31 -79 45 -119 49 -142 2 -12 7
-40 11 -61 8 -42 41 -69 51 -42 8 20 -1 125 -15 190 -13 58 -70 177 -87 182
-6 2 -14 -3 -18 -12z"/>
<path d="M1168 1036 c-29 -45 -39 -111 -15 -104 17 6 64 148 48 148 -3 0 -18
-20 -33 -44z"/>
<path d="M1610 1030 c0 -5 7 -28 16 -50 18 -43 27 -43 38 2 5 23 2 30 -24 43
-16 9 -30 11 -30 5z"/>
</g>
</svg>
